<?xml version="1.0" standalone="no"?>
<!DOCTYPE svg PUBLIC "-//W3C//DTD SVG 20010904//EN"
 "http://www.w3.org/TR/2001/REC-SVG-20010904/DTD/svg10.dtd">
<svg version="1.0" xmlns="http://www.w3.org/2000/svg"
 width="196.000000pt" height="196.000000pt" viewBox="0 0 196.000000 196.000000"
 preserveAspectRatio="xMidYMid meet">
<metadata>
Created by potrace 1.14, written by Peter Selinger 2001-2017
</metadata>
<g transform="translate(0.000000,196.000000) scale(0.100000,-0.100000)"
fill="#000000" stroke="none">
<path d="M147 1142 c0 -389 1 -717 2 -729 1 -17 7 -23 24 -23 16 0 18 -3 9 -9
-10 -6 -6 -11 17 -19 18 -6 31 -18 31 -28 0 -11 5 -14 16 -10 12 4 15 2 10 -9
-4 -10 1 -15 14 -15 11 0 20 -7 20 -15 0 -8 7 -15 15 -15 8 0 15 -4 15 -10 0
-5 7 -10 15 -10 8 0 15 -7 15 -16 0 -8 4 -13 8 -10 5 3 19 -8 32 -25 14 -16
28 -29 33 -29 4 0 19 -12 32 -26 14 -15 25 -24 25 -20 0 4 7 1 15 -6 8 -7 21
-19 29 -25 11 -10 80 -13 258 -13 173 -1 246 -4 257 -13 12 -9 13 -9 7 0 -10
18 254 18 273 1 11 -10 12 -10 7 -1 -5 10 16 13 86 13 82 0 107 1 166 8 7 1
10 7 7 12 -3 6 5 10 19 10 14 0 37 11 52 25 14 13 30 23 34 20 4 -3 14 3 21
12 10 12 10 14 2 9 -7 -4 -13 -2 -13 3 0 6 7 11 15 11 8 0 14 5 13 12 -2 7 4
12 12 13 8 0 15 7 16 15 2 37 5 41 17 34 7 -5 6 0 -3 11 -9 11 -10 16 -2 11 7
-4 13 -2 13 6 1 7 2 269 3 583 2 504 1 572 -13 589 -14 17 -14 18 -1 12 9 -4
8 -2 -2 7 -10 8 -18 20 -18 27 0 7 -3 10 -7 7 -3 -4 -12 1 -20 11 -9 10 -12
11 -7 2 5 -10 -1 -8 -16 5 -14 12 -20 14 -15 5 8 -13 7 -13 -10 0 -10 8 -20
14 -22 13 -1 -2 -12 -3 -23 -3 -16 0 -20 7 -20 34 0 19 -5 38 -12 42 -7 4 -8
3 -4 -4 4 -7 3 -12 -3 -12 -5 0 -11 10 -13 23 -2 12 -9 23 -15 23 -7 1 -17 2
-23 3 -5 0 -10 6 -10 12 0 5 6 7 13 3 6 -4 8 -3 4 2 -4 4 -20 9 -35 10 -15 1
-38 2 -52 3 -20 1 -22 3 -10 11 12 8 12 10 -5 10 -17 0 -17 2 -5 10 11 7 11
10 2 10 -7 0 -12 8 -11 18 4 40 -1 51 -18 45 -12 -5 -15 -2 -10 10 5 12 1 17
-13 17 -10 0 -25 7 -34 15 -13 13 -94 15 -613 15 l-598 0 2 -708z m1166 616
c-3 -5 4 -12 14 -14 19 -5 19 -21 18 -612 -1 -334 -3 -609 -5 -612 -1 -3 -2
-8 -2 -11 1 -8 -9 -9 -123 -12 -55 -2 -107 -7 -114 -12 -8 -5 -12 -4 -8 1 9
16 -158 10 -177 -5 -14 -12 -16 -12 -11 0 4 12 -10 14 -75 14 -44 0 -80 -4
-80 -9 0 -5 -6 -3 -14 3 -11 9 -18 8 -32 -6 -17 -17 -17 -17 -11 0 4 11 2 17
-9 17 -8 0 -13 -4 -10 -9 4 -6 -5 -6 -21 -2 -16 4 -40 4 -56 0 -15 -4 -25 -4
-23 0 3 4 -69 7 -160 6 -91 0 -168 2 -172 5 -12 9 -10 230 2 230 7 0 8 3 1 8
-13 9 -15 153 -2 145 6 -4 7 -1 1 8 -12 20 -13 120 -1 112 6 -4 7 -1 1 8 -11
18 -13 199 -2 205 5 3 4 14 -2 24 -7 13 -7 21 0 25 8 5 7 11 -1 21 -9 11 -9
14 0 14 9 0 9 5 0 21 -9 17 -8 20 3 13 11 -6 11 -5 -1 9 -9 12 -10 17 -2 17 7
0 9 5 4 13 -12 19 -11 117 1 117 6 0 4 5 -4 10 -12 8 -12 10 -1 10 11 0 11 3
1 15 -10 12 -10 15 1 16 10 0 11 2 2 6 -10 3 -10 10 -2 25 6 11 7 18 2 15 -5
-3 -9 3 -9 13 0 10 4 16 8 14 4 -3 8 0 8 5 0 6 -5 11 -10 11 -7 0 -7 6 0 20 6
11 7 20 2 20 -5 0 -9 7 -9 15 0 8 5 15 11 15 7 0 7 3 1 8 -12 9 -16 54 -4 46
5 -3 9 -1 9 3 0 5 241 9 534 9 310 0 533 -3 529 -8z m180 -173 c-4 -11 -1 -13
11 -9 17 7 17 9 16 -810 0 -290 -2 -320 -18 -333 -16 -12 -15 -13 3 -7 19 5
19 5 3 -9 -10 -8 -18 -19 -18 -26 0 -6 -7 -11 -16 -11 -8 0 -12 -4 -9 -10 3
-5 -3 -10 -15 -10 -12 0 -19 -4 -16 -9 3 -5 -1 -12 -10 -15 -10 -4 -13 -2 -8
7 5 9 4 9 -7 -1 -10 -9 -127 -12 -513 -12 l-501 0 -39 36 c-21 19 -36 38 -33
41 11 10 347 9 348 -2 0 -7 2 -7 5 0 7 17 580 10 601 -6 12 -10 15 -10 9 -2
-7 13 21 18 67 14 9 -1 17 4 17 12 0 8 9 17 21 20 13 4 18 10 13 18 -4 7 -3
10 4 5 14 -9 21 4 24 47 1 21 6 37 10 37 4 0 8 5 8 11 0 5 -4 8 -8 5 -5 -3 -9
1 -9 9 0 8 5 11 11 8 6 -4 5 1 -3 10 -9 11 -10 17 -2 17 6 0 11 5 11 11 0 5
-3 8 -8 5 -4 -2 -7 25 -6 61 0 44 5 68 15 74 11 7 10 9 -5 9 -15 0 -16 3 -6
15 7 8 9 15 4 15 -5 0 -9 18 -9 40 -1 29 3 40 14 40 11 0 10 4 -5 15 -12 9
-14 14 -6 15 8 0 10 5 6 12 -12 19 -12 102 0 117 8 11 8 13 0 8 -13 -8 -13
160 -1 181 5 6 4 12 0 12 -5 0 -9 31 -9 69 0 43 3 68 9 64 6 -4 7 -1 1 8 -5 8
-9 59 -9 115 l0 101 32 1 c25 1 31 -2 26 -13z m177 -141 c0 -9 6 -14 13 -11
11 4 13 -96 13 -564 0 -513 -1 -567 -15 -556 -9 6 -13 7 -8 2 4 -4 0 -19 -9
-33 -10 -15 -11 -21 -3 -17 7 5 4 -4 -7 -18 -10 -15 -27 -27 -36 -27 -10 0
-17 -3 -17 -7 3 -20 -2 -26 -11 -13 -8 13 -10 12 -10 -3 0 -11 -5 -15 -11 -11
-6 3 -15 0 -20 -7 -11 -19 -980 -20 -987 -1 -2 7 -10 12 -18 12 -8 0 -14 6
-14 14 0 8 -7 17 -16 20 -54 21 32 25 468 26 434 0 472 2 485 18 9 10 11 11 7
2 -7 -13 -5 -13 9 -2 9 8 21 11 27 7 6 -3 10 3 10 14 0 14 5 19 15 14 9 -3 15
-2 14 3 -4 24 2 36 16 30 9 -3 15 -1 14 7 -4 29 2 47 14 47 17 0 16 -45 17
553 l0 517 30 0 c21 0 30 -5 30 -16z"/>
<path d="M205 340 c3 -5 8 -10 11 -10 2 0 4 5 4 10 0 6 -5 10 -11 10 -5 0 -7
-4 -4 -10z"/>
</g>
</svg>
